<svg width="40" height="35" viewBox="0 0 40 35" fill="none" xmlns="http://www.w3.org/2000/svg">
<g filter="url(#filter0_d)">
<path d="M35 13.5L29.2308 7.25V19.75L35 13.5ZM35 13.5H15.3125M24.6154 7.25V4.125C24.6154 3.2962 24.3115 2.50134 23.7705 1.91529C23.2295 1.32924 22.4958 1 21.7308 1H7.88462C7.11957 1 6.38585 1.32924 5.84488 1.91529C5.30391 2.50134 5 3.2962 5 4.125V22.875C5 23.7038 5.30391 24.4987 5.84488 25.0847C6.38585 25.6708 7.11957 26 7.88462 26H21.7308C22.4958 26 23.2295 25.6708 23.7705 25.0847C24.3115 24.4987 24.6154 23.7038 24.6154 22.875V19.75V7.25Z" stroke="black" stroke-width="2" stroke-linecap="round" stroke-linejoin="round"/>
</g>
<defs>
<filter id="filter0_d" x="0" y="0" width="40" height="35" filterUnits="userSpaceOnUse" color-interpolation-filters="sRGB">
<feFlood flood-opacity="0" result="BackgroundImageFix"/>
<feColorMatrix in="SourceAlpha" type="matrix" values="0 0 0 0 0 0 0 0 0 0 0 0 0 0 0 0 0 0 127 0"/>
<feOffset dy="4"/>
<feGaussianBlur stdDeviation="2"/>
<feColorMatrix type="matrix" values="0 0 0 0 0 0 0 0 0 0 0 0 0 0 0 0 0 0 0.25 0"/>
<feBlend mode="normal" in2="BackgroundImageFix" result="effect1_dropShadow"/>
<feBlend mode="normal" in="SourceGraphic" in2="effect1_dropShadow" result="shape"/>
</filter>
</defs>
</svg>
